<?xml version="1.0" encoding="utf-8"?>
<!-- Generator: Adobe Illustrator 16.0.0, SVG Export Plug-In . SVG Version: 6.00 Build 0)  -->
<!DOCTYPE svg PUBLIC "-//W3C//DTD SVG 1.1//EN" "http://www.w3.org/Graphics/SVG/1.1/DTD/svg11.dtd">
<svg version="1.1" id="Layer_1" xmlns="http://www.w3.org/2000/svg" xmlns:xlink="http://www.w3.org/1999/xlink" x="0px" y="0px"
	 width="41.096px" height="32.877px" viewBox="0 0 41.096 32.877" enable-background="new 0 0 41.096 32.877" xml:space="preserve">
<path fill="#ABBA49" d="M27.981,14.291l4.596-5.731c0.446-0.59,1.2-0.78,1.829-0.434l4.964,2.647V4.01
	c0-1.663-1.661-3.01-3.713-3.01H21.084l6.962,3.708c0.68,0.402,0.691,1.105,0.154,1.611l-5.069,5.257
	c-0.579,0.548-1.427,0.577-2.161,0.203L10.48,6.153C9.747,5.75,9.9,4.989,10.438,4.553L15.317,1H3.71C1.661,1,0,2.347,0,4.01v8.142
	l4.77-3.464C5.308,8.25,6.084,8.233,6.821,8.638l11.378,6.2c0.666,0.36,0.65,1.167,0.144,1.694l-7.346,7.599
	c-0.785,0.806-1.768,0.619-2.531,0.216L0,19.827v10.107c0,1.661,1.661,3.009,3.71,3.009h20.935l-7.232-3.853
	c-0.602-0.331-0.499-0.985,0-1.579l6.616-8.254c0.66-0.713,1.548-0.413,2.33,0.007l11.436,6.323
	c0.641,0.382,0.475,1.239,0.203,1.724l-2.949,5.632h0.609c2.052,0,3.713-1.348,3.713-3.009v-8.281l-10.871-5.825
	C27.766,15.467,27.467,14.931,27.981,14.291"/>
</svg>
