<?xml version="1.0" encoding="utf-8"?>
<!-- Generator: Adobe Illustrator 16.0.0, SVG Export Plug-In . SVG Version: 6.00 Build 0)  -->
<!DOCTYPE svg PUBLIC "-//W3C//DTD SVG 1.1//EN" "http://www.w3.org/Graphics/SVG/1.1/DTD/svg11.dtd">
<svg version="1.1" id="Layer_1" xmlns="http://www.w3.org/2000/svg" xmlns:xlink="http://www.w3.org/1999/xlink" x="0px" y="0px"
	 width="46.576px" height="39.726px" viewBox="0 0 46.576 39.726" enable-background="new 0 0 46.576 39.726" xml:space="preserve">
<g>
	<path fill-rule="evenodd" clip-rule="evenodd" fill="#4D7282" d="M24.911,32.867c1.403,0,2.729,0.006,4.053-0.014
		c0.1-0.002,0.23-0.186,0.287-0.311c0.055-0.117,0.031-0.27,0.045-0.438c0.436,0,0.834,0.004,1.229,0
		c0.244-0.004,0.314,0.109,0.312,0.342c-0.008,1.598-0.008,3.197,0,4.793c0.002,0.252-0.086,0.355-0.332,0.389
		c-1.146,0.148-1.244,0.07-1.244-1.055c0-0.371-0.016-0.742,0.004-1.111c0.016-0.354-0.127-0.48-0.479-0.479
		c-1.498,0.014-2.996,0.006-4.494,0.006c-2.097,0-4.194,0-6.292,0.002c-0.533,0-0.554,0.025-0.557,0.561
		c-0.003,0.57-0.012,1.141,0,1.711c0.006,0.262-0.11,0.363-0.352,0.363c-0.029,0-0.057,0-0.085,0.002
		c-1.132,0.045-1.132,0.045-1.132-1.076c0-1.34,0.012-2.682-0.007-4.023c-0.004-0.344,0.113-0.467,0.439-0.441
		c0.213,0.018,0.429,0.029,0.641,0.016c0.335-0.023,0.557,0.037,0.5,0.451c-0.032,0.242,0.125,0.312,0.348,0.311
		c1.169-0.004,2.34-0.008,3.509,0c0.239,0.002,0.328-0.086,0.327-0.322c-0.005-1.613-0.005-3.225,0-4.838
		c0.001-0.238-0.097-0.338-0.33-0.334c-0.285,0.004-0.571-0.004-0.856-0.004c-3.281,0-6.563,0.002-9.844,0
		c-0.615,0-0.622-0.012-0.622-0.619c0-5.507,0.004-11.014-0.009-16.521c-0.001-0.411,0.111-0.539,0.523-0.539
		C19.027,9.7,27.559,9.701,36.092,9.693c0.383,0,0.475,0.126,0.473,0.494c-0.01,5.55-0.012,11.1,0,16.649
		c0.002,0.428-0.15,0.539-0.549,0.537c-3.48-0.01-6.963-0.006-10.443-0.006c-0.663,0-0.661-0.002-0.661,0.646
		c0.001,1.428-0.001,2.854-0.001,4.281C24.911,32.461,24.911,32.631,24.911,32.867z M17.763,16.566c-0.002,0-0.003,0-0.005,0
		c0-0.813-0.004-1.626,0.002-2.439c0.003-0.29-0.109-0.417-0.41-0.389c-0.821,0.076-1.605,0.284-2.312,0.707
		c-2.426,1.451-3.449,4.18-2.469,6.748c0.751,1.97,2.185,3.149,4.299,3.546c1.196,0.225,2.286,0.02,3.322-0.498
		c1.821-0.906,2.824-2.422,3.078-4.438c0.058-0.461,0.016-0.509-0.468-0.509c-1.541,0-3.081-0.005-4.622,0.006
		c-0.314,0.002-0.429-0.102-0.422-0.422C17.774,18.107,17.763,17.336,17.763,16.566z M19.339,14.976h-0.002
		c0,0.798,0,1.596-0.001,2.394c-0.001,0.215,0.01,0.392,0.308,0.39c1.625-0.007,3.249-0.003,4.873-0.001
		c0.205,0,0.303-0.062,0.297-0.301c-0.018-0.828-0.226-1.606-0.631-2.32c-0.967-1.7-2.435-2.655-4.38-2.894
		c-0.377-0.046-0.478,0.069-0.469,0.425C19.352,13.437,19.339,14.206,19.339,14.976z M30.887,16.768c0,0.001,0,0.002,0,0.004
		c1.068,0,2.139,0.001,3.209,0c0.604-0.001,0.609-0.004,0.604-0.587c-0.012-1.412,0.18-1.197-1.191-1.205
		c-1.984-0.009-3.967,0.003-5.949-0.006c-0.388-0.001-0.594,0.114-0.553,0.541c0.024,0.255,0.028,0.516-0.002,0.77
		c-0.045,0.401,0.158,0.489,0.502,0.487C28.633,16.763,29.76,16.768,30.887,16.768z M30.84,21.697c0,0.001,0,0.002,0,0.003
		c-1.125,0-2.252,0.015-3.377-0.008c-0.387-0.008-0.511,0.123-0.474,0.493c0.028,0.282,0.019,0.571,0.003,0.855
		c-0.016,0.287,0.092,0.42,0.389,0.418c2.311-0.002,4.621,0,6.932,0.006c0.258,0,0.359-0.115,0.355-0.362
		c-0.006-0.299-0.02-0.602,0.008-0.897c0.035-0.386-0.098-0.525-0.498-0.516C33.067,21.713,31.954,21.697,30.84,21.697z
		 M34.7,19.981c0-0.425-0.021-0.807,0.008-1.187c0.029-0.402-0.096-0.543-0.52-0.538c-1.967,0.021-3.934,0.009-5.9,0.009
		c-1.283,0-1.268,0-1.287,1.267c-0.006,0.386,0.118,0.48,0.482,0.478c2.266-0.014,4.531-0.007,6.795-0.008
		C34.391,20.002,34.504,19.991,34.7,19.981z"/>
	<path fill-rule="evenodd" clip-rule="evenodd" fill="#4D7282" d="M23.269,8.37c-5.065,0-10.13,0-15.194,0
		c-0.611,0-0.612,0-0.612-0.61C7.461,6.675,7.471,5.591,7.456,4.507C7.45,4.126,7.524,3.965,7.973,3.966
		c4.637,0.018,9.273,0.003,13.91,0.017c0.432,0.001,0.607-0.121,0.56-0.552c-0.02-0.183-0.009-0.371,0-0.556
		c0.027-0.545,0.304-0.826,0.82-0.835c0.514-0.01,0.806,0.268,0.843,0.812c0.013,0.199,0.02,0.4,0.006,0.598
		c-0.024,0.373,0.104,0.538,0.512,0.53c1.199-0.022,2.398-0.007,3.595-0.007c3.453,0,6.906,0.007,10.357-0.009
		c0.418-0.002,0.551,0.122,0.545,0.532c-0.021,1.098-0.006,2.197-0.008,3.295c0,0.573-0.002,0.575-0.564,0.575
		c-5.094,0-10.188,0-15.281,0C23.269,8.368,23.269,8.369,23.269,8.37z"/>
</g>
</svg>
